<?xml version="1.0" encoding="UTF-8"?><svg id="a" xmlns="http://www.w3.org/2000/svg" viewBox="0 0 360 360"><defs><style>.b{font-family:Boton-Medium, Boton-Medium;font-size:14.98px;stroke:#231f20;stroke-width:.53px;}.b,.c{fill:#231f20;}.b,.d{stroke-miterlimit:10;}.e,.f{fill:#010101;}.g{fill:#eba900;}.h{fill:#fff;}.i,.j{fill:#ffbf3c;}.k,.l,.m{fill:#bcbec0;}.n,.o{fill:#6d6e71;}.p{letter-spacing:.02em;}.q{letter-spacing:.04em;}.r{letter-spacing:.04em;}.l{stroke-width:10.7px;}.l,.m{stroke:#bcbec0;}.m{stroke-width:5.35px;}.o{stroke:#6d6e71;stroke-width:5.35px;}.f,.j{stroke:#010101;stroke-width:.97px;}.d{fill:none;stroke:#eba900;stroke-width:2.77px;}</style></defs><path class="d" d="M59.81,179.75c79.56-9.5,159.93-9.93,239.57-1.28"/><path class="l" d="M228.04,57.91h-90.86c-6.84,0-12.39,5.55-12.39,12.39v66.08c0,6.84,5.55,12.39,12.39,12.39h90.86c6.84,0,12.39-5.55,12.39-12.39V70.3c0-6.84-5.55-12.39-12.39-12.39Zm-28.91,99.12h8.26v8.26h-49.56v-8.26h8.26v-4.13h33.04v4.13Z"/><g><path class="k" d="M275.09,174.45V100.46l-91.41-24.98-91.41,24.98v74.32c-10.97,.96-21.92,2.08-32.85,3.39l.33,2.76c79.74-9.52,160.65-9.95,240.49-1.28l.3-2.76c-8.47-.92-16.96-1.72-25.45-2.43Zm-10.85-.86c-53.6-3.97-107.53-3.88-161.11,.28V108.74l80.56-22.02,80.56,22.02v64.85Z"/><path class="n" d="M273.12,174.28c-2.3-.19-4.6-.37-6.91-.54V107.24l-82.53-22.56-82.53,22.56v66.8c-2.3,.18-4.6,.38-6.91,.58V101.96l89.44-24.44,89.44,24.44v72.31Z"/><path class="k" d="M65.37,227.97l.33,2.76c11.82-1.41,23.68-2.59,35.55-3.58,15.79,27.58,48.73,55.24,68.19,70.12,8.41,6.43,20.07,6.42,28.48,0,19.54-14.94,52.66-42.76,68.37-70.44,9.52,.76,19.03,1.66,28.53,2.69l.3-2.76c-76.28-8.28-153.58-7.87-229.75,1.22Zm188.79-2.03c-7.22,11.3-18.19,23.94-32.53,37.31-8.13,7.57-16.28,14.41-23.37,20.04-8.53,6.78-20.61,6.77-29.15,0-7.17-5.69-15.42-12.61-23.6-20.25-14.12-13.19-24.95-25.65-32.13-36.83,46.84-3.35,93.93-3.44,140.79-.27Z"/></g><g><path class="i" d="M105.1,110.25v63.69c52.31-3.97,104.84-4.06,157.17-.28v-63.41l-78.58-21.48-78.58,21.48Z"/><g/><path class="i" d="M146.85,261.59c7.64,7.14,15.37,13.65,22.13,19.07,8.6,6.88,20.8,6.89,29.39,0,6.69-5.35,14.32-11.79,21.9-18.86,14.23-13.26,25.09-25.74,32.2-36.84-45.76-3.03-91.68-2.95-137.44,.25,7.07,10.98,17.8,23.3,31.81,36.38Z"/><g/></g><g/><path class="n" d="M169.41,294.77c-19.32-14.86-50.67-41.41-66.05-67.79,2.57-.21,5.13-.42,7.7-.61,6.29,10,15.5,21.01,27.5,32.75,10.51,10.29,21.54,19.55,30.63,26.72,8.49,6.7,20.49,6.7,28.99,0,9.09-7.17,20.12-16.43,30.63-26.71,12.11-11.85,21.37-22.94,27.66-33.02,2.57,.18,5.15,.36,7.72,.56-15.32,26.49-46.83,53.19-66.23,68.1-8.41,6.47-20.13,6.47-28.54,0Z"/><text class="b" transform="translate(141.27 242.21) scale(1.2 1)"><tspan class="p" x="0" y="0">CO</tspan><tspan class="r" x="19.66" y="0">M</tspan><tspan x="32.45" y="0">P </tspan><tspan class="p" x="45.25" y="0">S</tspan><tspan class="q" x="54.29" y="0">C</tspan><tspan x="63.97" y="0">I</tspan></text><g><path class="m" d="M70.18,185.95c10.43-.96,20.87-1.79,31.31-2.47,.25,3.84,.51,7.68,.76,11.52-2.83,.19-5.67,.38-8.5,.59-.12-1.65-.24-3.3-.36-4.96-2.83,.21-5.65,.42-8.48,.65,.15,1.85,.3,3.7,.45,5.55,2.36-.19,4.72-.37,7.09-.55,.16,2.19,.32,4.37,.49,6.56-2.35,.17-4.7,.36-7.05,.54,.19,2.38,.38,4.77,.57,7.15,2.78-.22,5.56-.44,8.34-.64-.14-1.91-.28-3.82-.42-5.73,2.81-.21,5.63-.4,8.44-.59,.27,4.1,.54,8.2,.81,12.3-10.16,.67-20.32,1.47-30.46,2.41-.2-2.2-.41-4.4-.61-6.6,1.19-.09,2.37-.19,3.56-.28-.57-6.41-1.14-12.83-1.72-19.24-1.2,.12-2.41,.25-3.61,.37-.2-2.2-.41-4.4-.61-6.6Z"/><path class="m" d="M110.54,215.45c-.13-2.2-.26-4.41-.4-6.61,1.19-.06,2.38-.11,3.56-.16-.37-6.43-.73-12.86-1.1-19.29-1.21,.08-2.41,.17-3.62,.26-.13-2.2-.26-4.41-.4-6.61,5.84-.35,11.68-.66,17.53-.92,2.01-.03,3.56-.02,4.65,.03,1.08,.05,2.05,.13,2.89,.25,3.59,.57,6.36,2.18,8.3,4.81,1.94,2.64,2.96,6.01,3.08,10.12,.04,1.5-.06,3.12-.3,4.84-.25,1.54-.67,3.03-1.26,4.46-.59,1.43-1.55,2.73-2.88,3.91-.94,.8-1.95,1.46-3.04,1.97-1.09,.52-2.2,.9-3.32,1.16-1.12,.26-2.17,.45-3.17,.57-.99,.12-2.14,.22-3.43,.31h-.11c-5.67,.26-11.33,.56-16.99,.9Zm13.52-7.36c1.89-.09,3.28-.19,4.17-.31,.89-.12,1.68-.33,2.37-.63,.95-.44,1.69-1.08,2.24-1.91,.54-.83,.93-1.7,1.16-2.6,.23-.9,.35-1.73,.38-2.5,.03-.77,.02-1.52,0-2.26-.05-1.32-.18-2.45-.38-3.39-.2-.94-.49-1.78-.86-2.5-.7-1.45-1.75-2.36-3.14-2.75-1.4-.39-3.68-.51-6.85-.36,.31,6.4,.61,12.8,.92,19.21Z"/><path class="m" d="M149.98,181.27c6-.15,12-.26,18-.32l.07,6.62c-1.21,0-2.42,0-3.63,0,.09,6.44,.17,12.88,.26,19.32,1.19-.03,2.38-.06,3.57-.09l.07,6.62c-5.84,.06-11.67,.16-17.51,.31-.06-2.21-.11-4.41-.17-6.62,1.21-.02,2.42-.03,3.62-.04-.14-6.44-.28-12.88-.43-19.32-1.23,.04-2.45,.09-3.68,.13-.06-2.21-.11-4.41-.17-6.62Z"/><path class="m" d="M182.4,202.01c.11,.58,.26,1.14,.44,1.68,.19,.54,.48,1.11,.89,1.7,.41,.6,.99,1.11,1.75,1.52,.76,.42,1.7,.63,2.81,.64,1.22,0,2.26-.27,3.1-.85,.84-.57,1.27-1.29,1.28-2.15,0-.61-.19-1.16-.6-1.64-.41-.48-.91-.88-1.53-1.21-.61-.33-1.23-.6-1.84-.82-.62-.22-1.35-.45-2.21-.7h-.06c-2.24-.63-3.9-1.13-4.99-1.53-.79-.28-1.53-.6-2.25-.97-.71-.37-1.47-.89-2.28-1.56-.81-.67-1.48-1.51-2.01-2.52-.53-1.01-.8-2.19-.81-3.54,0-1.47,.31-2.78,.94-3.94,.64-1.15,1.43-2.11,2.38-2.88,.8-.65,1.63-1.17,2.5-1.57,.87-.4,1.7-.68,2.48-.85,.78-.17,1.47-.27,2.08-.32,.61-.04,1.2-.06,1.77-.06,1.75,0,3.32,.24,4.72,.7,1.4,.46,2.7,1.25,3.9,2.37,.09-.84,.17-1.68,.26-2.53,2.6,.03,5.2,.07,7.8,.12-.07,3.65-.14,7.3-.21,10.95-2.77-.05-5.53-.1-8.3-.13-.14-.92-.34-1.71-.59-2.35-.26-.65-.72-1.25-1.4-1.81-.6-.53-1.21-.87-1.83-1.03-.62-.16-1.24-.24-1.84-.24-1.25,0-2.26,.28-3.04,.86-.78,.58-1.16,1.27-1.17,2.06,0,.86,.33,1.57,1.01,2.12,.41,.34,.97,.65,1.66,.93,.69,.28,2.02,.72,3.96,1.32,.21,.06,.41,.13,.62,.19h.06c1.83,.6,3.34,1.13,4.51,1.59,1.18,.46,2.3,1.08,3.37,1.85,1.07,.77,1.93,1.74,2.56,2.9,.63,1.16,.93,2.54,.9,4.14-.05,2.73-1.12,4.93-3.19,6.61-1.09,.9-2.44,1.59-4.05,2.08-1.61,.48-3.46,.72-5.52,.7-1.26-.01-2.35-.13-3.29-.35-.94-.22-1.72-.48-2.35-.79-.63-.31-1.13-.63-1.49-.95-.37-.32-.72-.67-1.05-1.04l-.06-.05c-.08,.9-.15,1.81-.23,2.71-2.53,0-5.06,0-7.59,.01-.02-3.79-.04-7.57-.06-11.36,2.69-.01,5.37-.02,8.06-.01Z"/><path class="m" d="M210.52,190.32c.96-2.26,2.47-4.16,4.52-5.7,1.74-1.33,3.7-2.24,5.86-2.74,2.16-.49,4.41-.7,6.72-.6,1.48,.06,2.86,.21,4.14,.45,1.28,.24,2.35,.5,3.22,.79,1.98,.67,3.67,1.59,5.05,2.75,1.38,1.16,2.47,2.48,3.26,3.95,.79,1.47,1.33,3,1.62,4.6,.29,1.6,.39,3.24,.29,4.92-.13,2.33-.58,4.48-1.36,6.44-.78,1.97-1.94,3.71-3.49,5.23-1.55,1.52-3.49,2.66-5.84,3.44-2.35,.78-5.09,1.1-8.23,.98-2.44-.1-4.74-.5-6.92-1.22-2.18-.72-4.02-1.76-5.54-3.12-1.77-1.58-3.04-3.48-3.8-5.69-.76-2.21-1.12-4.58-1.06-7.09,.06-2.67,.57-5.13,1.54-7.39Zm23.66,3.53c-.16-.68-.35-1.32-.56-1.91-.22-.59-.58-1.2-1.08-1.82-.5-.62-1.17-1.14-2-1.56-.83-.42-1.87-.65-3.12-.7-1.74-.07-3.19,.35-4.36,1.26-.62,.47-1.15,1.06-1.59,1.79-.44,.72-.79,1.49-1.04,2.31-.25,.82-.43,1.61-.53,2.38-.1,.76-.16,1.5-.19,2.2-.05,1.62,.1,3.24,.45,4.85,.16,.71,.39,1.38,.69,2,.29,.62,.68,1.21,1.17,1.74,.48,.54,1.11,.98,1.88,1.33,.77,.35,1.67,.55,2.71,.59,.41,.02,.81,0,1.2-.02,.39-.03,.79-.1,1.21-.2,1.05-.29,1.94-.82,2.66-1.57,.72-.75,1.27-1.61,1.65-2.57,.38-.96,.66-1.92,.83-2.86,.17-.94,.28-1.86,.32-2.75,.07-1.47-.03-2.96-.3-4.48Z"/><path class="m" d="M251.33,183.01c6.05,.36,12.1,.77,18.14,1.22,2.39,8.84,4.71,17.68,6.97,26.53,.49-6.42,.98-12.84,1.47-19.26-.87-.06-1.74-.11-2.6-.16,.18-2.2,.35-4.4,.53-6.6,4.77,.38,9.54,.79,14.31,1.23-.2,2.2-.41,4.4-.61,6.6-1.2-.13-2.41-.25-3.61-.37-.77,8.6-1.53,17.2-2.3,25.8-4.77-.43-9.54-.82-14.32-1.19-2.24-8.77-4.54-17.53-6.91-26.29-.37,6.37-.73,12.74-1.1,19.11,.89,.05,1.78,.09,2.67,.14-.16,2.2-.32,4.4-.47,6.61-4.7-.34-9.4-.65-14.11-.93,.13-2.2,.26-4.41,.39-6.61,1.19,.09,2.37,.17,3.56,.26,.4-6.43,.8-12.86,1.21-19.28-1.21-.06-2.42-.12-3.62-.17,.13-2.2,.26-4.41,.39-6.61Z"/></g><g><path class="f" d="M71.39,187.22c10.41-.98,20.84-1.82,31.27-2.52,.26,3.84,.52,7.68,.77,11.52-2.83,.19-5.66,.39-8.49,.6-.12-1.65-.25-3.3-.37-4.95-2.82,.21-5.64,.43-8.47,.66,.15,1.85,.3,3.7,.45,5.55,2.36-.19,4.72-.38,7.08-.56l.5,6.56c-2.35,.18-4.69,.36-7.04,.55,.2,2.38,.39,4.77,.59,7.15,2.77-.23,5.55-.44,8.33-.65-.14-1.91-.28-3.82-.43-5.73,2.81-.21,5.62-.41,8.43-.6,.28,4.1,.55,8.2,.83,12.3-10.14,.68-20.28,1.5-30.4,2.45-.21-2.2-.41-4.4-.62-6.59,1.18-.1,2.37-.19,3.55-.28-.58-6.41-1.17-12.83-1.75-19.24-1.2,.12-2.4,.25-3.6,.38-.21-2.2-.41-4.4-.62-6.6Z"/><path class="f" d="M111.74,216.66c-.13-2.2-.27-4.41-.4-6.61,1.19-.06,2.37-.11,3.56-.17-.37-6.43-.75-12.86-1.12-19.29-1.2,.09-2.41,.17-3.61,.26-.13-2.2-.27-4.41-.4-6.61,5.83-.36,11.67-.67,17.5-.94,2.01-.03,3.56-.02,4.64,.03,1.08,.05,2.05,.13,2.88,.25,3.59,.56,6.36,2.17,8.29,4.81,1.94,2.64,2.96,6.01,3.08,10.12,.05,1.5-.06,3.12-.3,4.84-.25,1.54-.67,3.03-1.26,4.46-.59,1.43-1.55,2.74-2.87,3.92-.94,.8-1.95,1.46-3.04,1.97-1.09,.52-2.19,.9-3.31,1.16-1.12,.26-2.17,.45-3.16,.57-.99,.12-2.13,.22-3.42,.31h-.11c-5.66,.27-11.31,.57-16.96,.91Zm13.49-7.38c1.89-.09,3.28-.19,4.16-.31,.89-.12,1.67-.33,2.37-.63,.95-.44,1.69-1.08,2.23-1.91,.54-.83,.93-1.7,1.15-2.6,.22-.9,.35-1.73,.38-2.5,.02-.77,.02-1.52,0-2.26-.05-1.32-.18-2.45-.39-3.39-.21-.94-.49-1.78-.86-2.5-.7-1.45-1.74-2.36-3.14-2.75-1.39-.38-3.67-.51-6.84-.35,.31,6.4,.63,12.8,.94,19.21Z"/><path class="f" d="M151.09,182.45c5.99-.15,11.98-.26,17.97-.32l.07,6.62c-1.21,0-2.41,0-3.62,0,.09,6.44,.17,12.88,.26,19.32,1.19-.03,2.37-.06,3.56-.09,.02,2.21,.05,4.42,.07,6.62-5.83,.06-11.65,.17-17.48,.32-.06-2.21-.11-4.41-.17-6.62,1.21-.02,2.41-.03,3.62-.04-.15-6.44-.29-12.88-.44-19.32-1.22,.04-2.45,.09-3.67,.14-.06-2.21-.11-4.41-.17-6.62Z"/><path class="f" d="M183.47,203.18c.11,.58,.26,1.14,.44,1.68,.18,.54,.48,1.11,.89,1.7,.41,.6,.99,1.11,1.75,1.52,.76,.42,1.69,.63,2.8,.64,1.22,0,2.25-.27,3.09-.85,.84-.57,1.27-1.29,1.27-2.15,0-.61-.19-1.16-.6-1.64-.4-.48-.91-.88-1.52-1.21-.61-.33-1.22-.6-1.84-.82-.61-.22-1.35-.45-2.21-.7h-.06c-2.24-.63-3.9-1.13-4.98-1.53-.78-.28-1.53-.6-2.24-.97-.71-.37-1.47-.89-2.28-1.56-.81-.67-1.47-1.51-2-2.52-.53-1.01-.8-2.19-.81-3.54,0-1.47,.3-2.79,.94-3.94,.64-1.15,1.43-2.11,2.37-2.88,.79-.65,1.63-1.17,2.5-1.57,.87-.4,1.7-.68,2.47-.85,.78-.17,1.47-.27,2.08-.32,.61-.04,1.19-.06,1.76-.06,1.74,0,3.32,.24,4.72,.7,1.4,.46,2.7,1.25,3.89,2.37,.09-.84,.17-1.68,.26-2.53,2.6,.03,5.2,.07,7.79,.13l-.21,10.95c-2.76-.05-5.52-.1-8.28-.13-.14-.92-.34-1.71-.59-2.35-.26-.65-.72-1.25-1.39-1.81-.6-.53-1.21-.87-1.83-1.03-.62-.16-1.24-.24-1.84-.24-1.25,0-2.26,.28-3.03,.86-.77,.58-1.16,1.27-1.17,2.06,0,.86,.33,1.57,1.01,2.12,.41,.34,.96,.65,1.66,.93,.69,.28,2.01,.72,3.96,1.32,.21,.06,.41,.13,.62,.19h.06c1.83,.6,3.33,1.14,4.51,1.6,1.17,.46,2.3,1.08,3.37,1.85,1.07,.77,1.92,1.74,2.55,2.9,.63,1.16,.93,2.54,.9,4.14-.05,2.73-1.12,4.93-3.18,6.61-1.09,.9-2.44,1.59-4.05,2.08-1.61,.48-3.45,.72-5.51,.7-1.25-.01-2.35-.13-3.29-.35-.94-.22-1.72-.48-2.35-.79-.63-.31-1.12-.63-1.49-.95-.37-.32-.72-.67-1.05-1.04l-.06-.05c-.08,.9-.15,1.81-.23,2.71-2.53,0-5.05,0-7.58,.01-.02-3.79-.04-7.57-.06-11.36,2.68-.01,5.36-.02,8.04-.01Z"/><path class="f" d="M211.55,191.5c.96-2.26,2.47-4.16,4.52-5.7,1.74-1.33,3.7-2.24,5.86-2.73,2.16-.49,4.4-.69,6.71-.6,1.48,.06,2.86,.21,4.14,.45,1.28,.24,2.35,.5,3.21,.79,1.98,.68,3.66,1.6,5.04,2.76,1.38,1.16,2.46,2.48,3.25,3.95,.79,1.47,1.33,3.01,1.61,4.6,.29,1.6,.38,3.24,.29,4.92-.13,2.33-.59,4.47-1.37,6.44-.78,1.97-1.94,3.71-3.49,5.22-1.55,1.52-3.49,2.66-5.84,3.44-2.35,.78-5.08,1.1-8.21,.97-2.43-.1-4.73-.51-6.9-1.23-2.17-.72-4.01-1.76-5.53-3.12-1.77-1.59-3.03-3.48-3.79-5.7-.76-2.21-1.11-4.58-1.05-7.09,.07-2.67,.58-5.13,1.54-7.39Zm23.63,3.55c-.16-.68-.34-1.32-.56-1.91-.22-.59-.58-1.2-1.08-1.82-.5-.62-1.17-1.14-2-1.56-.83-.42-1.87-.66-3.11-.71-1.74-.07-3.19,.35-4.35,1.26-.62,.47-1.15,1.06-1.59,1.78-.44,.72-.79,1.49-1.04,2.31-.25,.82-.43,1.61-.53,2.37-.1,.76-.16,1.5-.19,2.2-.06,1.62,.09,3.24,.45,4.85,.16,.71,.39,1.38,.68,2,.29,.62,.68,1.21,1.16,1.75,.48,.54,1.11,.98,1.87,1.34,.77,.35,1.67,.55,2.7,.59,.41,.02,.81,0,1.2-.02,.39-.03,.79-.1,1.21-.2,1.05-.29,1.94-.81,2.66-1.56,.72-.75,1.27-1.61,1.65-2.57,.38-.96,.66-1.92,.83-2.86,.18-.94,.28-1.86,.33-2.75,.07-1.47-.03-2.96-.3-4.48Z"/><path class="f" d="M252.31,184.22c6.04,.37,12.08,.78,18.12,1.24,2.37,8.84,4.67,17.68,6.91,26.54,.5-6.42,1.01-12.84,1.51-19.26-.87-.06-1.73-.11-2.6-.17,.18-2.2,.36-4.4,.54-6.6,4.77,.39,9.53,.81,14.29,1.26-.21,2.2-.41,4.4-.62,6.6-1.2-.13-2.4-.26-3.6-.38-.78,8.6-1.56,17.2-2.35,25.79-4.76-.43-9.52-.84-14.29-1.21-2.22-8.77-4.5-17.54-6.85-26.3-.37,6.37-.75,12.74-1.13,19.1,.89,.05,1.78,.1,2.67,.15l-.48,6.61c-4.69-.34-9.39-.66-14.08-.94,.13-2.2,.27-4.41,.4-6.61,1.18,.09,2.37,.18,3.55,.27,.41-6.43,.82-12.85,1.23-19.28-1.21-.06-2.41-.12-3.62-.18,.13-2.2,.27-4.41,.4-6.61Z"/></g><g><path class="j" d="M70.32,186.15c10.41-.98,20.84-1.82,31.27-2.52,.26,3.84,.52,7.68,.77,11.52-2.83,.19-5.66,.39-8.49,.6-.12-1.65-.25-3.3-.37-4.95-2.82,.21-5.64,.43-8.47,.66,.15,1.85,.3,3.7,.45,5.55,2.36-.19,4.72-.38,7.08-.56,.17,2.19,.33,4.37,.5,6.56-2.35,.18-4.69,.36-7.04,.55,.2,2.38,.39,4.77,.59,7.15,2.77-.23,5.55-.44,8.33-.65-.14-1.91-.28-3.82-.43-5.73,2.81-.21,5.62-.41,8.43-.6l.83,12.3c-10.14,.68-20.28,1.5-30.4,2.45-.21-2.2-.41-4.4-.62-6.59,1.18-.1,2.37-.19,3.55-.28-.58-6.41-1.17-12.83-1.75-19.24-1.2,.12-2.4,.25-3.6,.38-.21-2.2-.41-4.4-.62-6.6Z"/><path class="j" d="M110.67,215.59c-.13-2.2-.27-4.41-.4-6.61,1.19-.06,2.37-.11,3.56-.17-.37-6.43-.75-12.86-1.12-19.29-1.2,.09-2.41,.17-3.61,.26-.13-2.2-.27-4.41-.4-6.61,5.83-.36,11.67-.67,17.5-.94,2.01-.03,3.56-.02,4.64,.03,1.08,.05,2.05,.13,2.88,.25,3.59,.56,6.36,2.17,8.29,4.81,1.94,2.64,2.96,6.01,3.08,10.12,.05,1.5-.06,3.12-.3,4.84-.25,1.54-.67,3.03-1.26,4.46-.59,1.43-1.54,2.74-2.87,3.92-.94,.8-1.95,1.46-3.04,1.97-1.09,.52-2.19,.9-3.31,1.16-1.12,.26-2.17,.45-3.16,.57-.99,.12-2.13,.22-3.42,.31h-.11c-5.66,.27-11.31,.57-16.96,.91Zm13.49-7.38c1.89-.09,3.28-.19,4.16-.31,.89-.12,1.68-.33,2.37-.63,.95-.44,1.69-1.08,2.23-1.91,.54-.83,.93-1.7,1.15-2.6,.22-.9,.35-1.73,.38-2.5,.03-.77,.02-1.52,0-2.26-.05-1.32-.18-2.45-.39-3.39-.21-.94-.49-1.78-.86-2.5-.7-1.45-1.74-2.36-3.14-2.75-1.39-.38-3.67-.51-6.84-.35,.31,6.4,.63,12.8,.94,19.21Z"/><path class="j" d="M150.02,181.38c5.99-.15,11.98-.26,17.97-.32l.07,6.62c-1.21,0-2.41,0-3.62,0,.09,6.44,.17,12.88,.26,19.32,1.19-.03,2.37-.06,3.56-.09,.02,2.21,.05,4.42,.07,6.62-5.83,.06-11.65,.17-17.48,.32-.06-2.21-.11-4.41-.17-6.62,1.21-.02,2.41-.03,3.62-.04-.15-6.44-.29-12.88-.44-19.32-1.23,.04-2.45,.09-3.67,.14-.06-2.21-.11-4.41-.17-6.62Z"/><path class="j" d="M182.4,202.11c.11,.58,.26,1.14,.44,1.68,.18,.54,.48,1.11,.89,1.7,.41,.6,.99,1.11,1.75,1.52,.76,.42,1.69,.63,2.8,.64,1.22,0,2.25-.27,3.09-.85,.84-.57,1.26-1.29,1.27-2.15,0-.61-.19-1.16-.6-1.64-.41-.48-.91-.88-1.52-1.21-.61-.33-1.22-.6-1.84-.82-.61-.22-1.35-.45-2.21-.7h-.06c-2.24-.63-3.9-1.13-4.98-1.53-.79-.28-1.53-.6-2.24-.97-.71-.37-1.47-.89-2.28-1.56-.81-.67-1.47-1.51-2-2.52-.53-1.01-.8-2.19-.81-3.54,0-1.47,.3-2.78,.94-3.94,.64-1.15,1.43-2.11,2.37-2.88,.79-.65,1.63-1.17,2.5-1.57,.87-.4,1.7-.68,2.47-.85,.78-.17,1.47-.27,2.08-.32,.61-.04,1.2-.06,1.76-.06,1.74,0,3.32,.24,4.72,.7,1.4,.46,2.7,1.25,3.89,2.37,.09-.84,.17-1.68,.26-2.53,2.6,.03,5.2,.07,7.79,.13l-.21,10.95c-2.76-.05-5.52-.1-8.28-.13-.14-.92-.34-1.71-.59-2.35-.26-.65-.72-1.25-1.39-1.81-.6-.53-1.21-.87-1.83-1.03-.62-.16-1.23-.24-1.84-.24-1.25,0-2.26,.28-3.03,.86-.77,.58-1.16,1.27-1.17,2.06,0,.86,.33,1.57,1.01,2.12,.41,.34,.96,.65,1.66,.93,.69,.28,2.01,.72,3.96,1.32,.21,.06,.41,.13,.62,.19h.06c1.83,.6,3.33,1.14,4.51,1.6,1.17,.46,2.3,1.08,3.37,1.85,1.07,.77,1.92,1.74,2.55,2.9,.63,1.16,.93,2.54,.9,4.14-.06,2.73-1.12,4.93-3.18,6.61-1.09,.9-2.44,1.59-4.05,2.08-1.61,.48-3.45,.71-5.51,.7-1.25-.01-2.35-.13-3.29-.35-.94-.22-1.72-.48-2.35-.79-.63-.31-1.12-.63-1.49-.95-.37-.32-.72-.67-1.05-1.04l-.06-.05c-.08,.9-.15,1.81-.23,2.71-2.53,0-5.05,0-7.58,.01-.02-3.79-.04-7.57-.06-11.36,2.68-.01,5.36-.02,8.04-.01Z"/><path class="j" d="M210.48,190.43c.96-2.26,2.47-4.16,4.52-5.7,1.74-1.33,3.7-2.24,5.86-2.73,2.16-.49,4.4-.69,6.71-.6,1.48,.06,2.86,.21,4.14,.45,1.28,.24,2.35,.5,3.21,.79,1.98,.68,3.66,1.6,5.04,2.76,1.38,1.16,2.47,2.48,3.25,3.95,.79,1.47,1.33,3.01,1.61,4.6,.29,1.6,.38,3.24,.29,4.92-.13,2.33-.59,4.47-1.37,6.44-.78,1.97-1.94,3.71-3.49,5.22-1.55,1.52-3.49,2.66-5.84,3.44-2.35,.78-5.08,1.1-8.21,.97-2.43-.1-4.73-.51-6.9-1.23-2.17-.72-4.01-1.76-5.53-3.12-1.77-1.59-3.03-3.48-3.79-5.7-.76-2.21-1.11-4.58-1.05-7.09,.07-2.67,.58-5.13,1.54-7.39Zm23.63,3.55c-.16-.68-.34-1.32-.56-1.91-.22-.59-.58-1.2-1.08-1.82-.5-.62-1.17-1.14-2-1.56-.83-.42-1.87-.66-3.11-.71-1.73-.07-3.19,.35-4.35,1.26-.62,.47-1.15,1.06-1.59,1.78-.44,.72-.79,1.49-1.04,2.31-.25,.82-.43,1.61-.53,2.37-.1,.76-.16,1.5-.19,2.2-.06,1.62,.09,3.24,.45,4.85,.16,.71,.39,1.38,.68,2,.29,.62,.68,1.21,1.16,1.75,.48,.54,1.11,.98,1.87,1.34,.77,.35,1.67,.55,2.7,.59,.41,.02,.81,0,1.2-.02,.39-.03,.79-.1,1.21-.2,1.05-.29,1.94-.81,2.66-1.56,.72-.75,1.27-1.61,1.65-2.57,.38-.96,.66-1.92,.83-2.86,.18-.94,.28-1.86,.33-2.75,.07-1.47-.03-2.96-.3-4.48Z"/><path class="j" d="M251.24,183.15c6.04,.37,12.08,.78,18.12,1.24,2.37,8.84,4.67,17.68,6.91,26.54,.5-6.42,1.01-12.84,1.51-19.26-.87-.06-1.73-.11-2.6-.17,.18-2.2,.36-4.4,.54-6.6,4.77,.39,9.53,.81,14.29,1.26-.21,2.2-.41,4.4-.62,6.6-1.2-.13-2.4-.26-3.6-.38-.78,8.6-1.56,17.2-2.35,25.79-4.76-.43-9.52-.84-14.29-1.21-2.22-8.77-4.5-17.54-6.85-26.3-.37,6.37-.75,12.74-1.13,19.1,.89,.05,1.78,.1,2.67,.15l-.48,6.61c-4.69-.34-9.39-.66-14.08-.94,.13-2.2,.27-4.41,.4-6.61,1.18,.09,2.37,.18,3.55,.27,.41-6.43,.82-12.85,1.23-19.28-1.21-.06-2.41-.12-3.62-.18,.13-2.2,.27-4.41,.4-6.61Z"/></g><g><path class="o" d="M228.04,57.91h-90.86c-6.84,0-12.39,5.55-12.39,12.39v66.08c0,6.84,5.55,12.39,12.39,12.39h90.86c6.84,0,12.39-5.55,12.39-12.39V70.3c0-6.84-5.55-12.39-12.39-12.39Zm-28.91,99.12h8.26v8.26h-49.56v-8.26h8.26v-4.13h33.04v4.13Z"/><path class="e" d="M228.04,57.91h-90.86c-6.84,0-12.39,5.55-12.39,12.39v66.08c0,6.84,5.55,12.39,12.39,12.39h90.86c6.84,0,12.39-5.55,12.39-12.39V70.3c0-6.84-5.55-12.39-12.39-12.39Zm-28.91,99.12h8.26v8.26h-49.56v-8.26h8.26v-4.13h33.04v4.13Z"/><g><path class="h" d="M134.12,122.93v-52.62c0-1.69,1.37-3.06,3.06-3.06h90.86c1.69,0,3.06,1.37,3.06,3.06v52.62h-96.98Z"/><path class="g" d="M228.04,68.31c1.1,0,1.99,.89,1.99,1.99v51.55h-94.85v-51.55c0-1.1,.89-1.99,1.99-1.99h90.86m0-2.14h-90.86c-2.28,0-4.13,1.85-4.13,4.13v53.69h99.12v-53.69c0-2.28-1.85-4.13-4.13-4.13h0Z"/></g><g><g><polygon class="c" points="148.21 98.95 148.21 93.93 169.25 76.33 169.25 85.41 155.7 96.44 169.25 107.48 169.25 116.56 148.21 98.95"/><path class="g" d="M168.45,78.05v6.98l-14.03,11.42,14.03,11.42v6.98l-19.44-16.26v-4.27l19.44-16.26m1.6-3.43l-2.63,2.2-19.44,16.26-.58,.48v5.77l.58,.48,19.44,16.26,2.63,2.2v-11.17l-.59-.48-12.5-10.17,12.5-10.17,.59-.48v-11.17h0Z"/></g><g><polygon class="c" points="174.96 116.84 183.9 74.1 190.28 74.1 181.29 116.84 174.96 116.84"/><path class="g" d="M189.29,74.91l-8.65,41.13h-4.7l8.61-41.13h4.74m1.98-1.6h-8.02l-.27,1.28-8.61,41.13-.4,1.93h7.97l.27-1.27,8.65-41.13,.41-1.93h0Z"/></g><g><polygon class="c" points="193.92 107.48 207.58 96.44 193.92 85.41 193.92 76.34 214.97 93.87 214.97 99.02 193.92 116.54 193.92 107.48"/><path class="g" d="M194.72,78.05l19.44,16.19v4.39l-19.44,16.19v-6.97l14.13-11.42-14.13-11.42v-6.97m-1.6-3.43v11.16l.6,.48,12.59,10.17-12.59,10.17-.6,.48v11.16l2.63-2.19,19.44-16.19,.58-.48v-5.9l-.58-.48-19.44-16.19-2.63-2.19h0Z"/></g></g></g></svg>